# xmcd
#
# Track frame offsets:
#	150
#	17347
#	36109
#	49913
#	72274
#	93703
#	111501
#	131395
#	149060
#	167831
#	183890
#
# Disc length: 2737 seconds
#
# Revision: 0
# Processed by: cddbd v1.5.2PL0 Copyright (c) Steve Scherf et al.
# Submitted via: EasyCDDAExtractor 2010.6.0.0
#
DISCID=9c0aaf0b
DTITLE=James Armstrong - Guitar Angels
DYEAR=2014
DGENRE=Blues
TTITLE0=Grandma's Got a New Friend
TTITLE1=Healing Time
TTITLE2=Take It to the Limit
TTITLE3=Guitar Angels
TTITLE4=Moving to Nashville
TTITLE5=Goodbye Kiss
TTITLE6=Bank of Love
TTITLE7=Saturday Night Women
TTITLE8=Blues Ain't Nothin'
TTITLE9=Runaway Train
TTITLE10=Guitar Angels (Radio Version)
EXTD=
EXTT0=
EXTT1=
EXTT2=
EXTT3=
EXTT4=
EXTT5=
EXTT6=
EXTT7=
EXTT8=
EXTT9=
EXTT10=
PLAYORDER=
